<svg width="728" height="506" viewBox="0 0 728 506" fill="none" xmlns="http://www.w3.org/2000/svg">
<g clip-path="url(#clip0)">
<path opacity="0.1" d="M713.92 134.631C706.712 119.68 696.973 105.809 685.044 93.5059L284.411 89.9779L614.267 48.5676C592.958 40.9826 570.272 36.9594 547.337 36.6981C515.784 14.1545 476.931 1.31742 436.559 0.0963514C396.186 -1.12472 356.452 9.33546 323.265 29.921C296.744 17.7345 267.343 11.4015 237.522 11.4516C148.505 11.4516 74.3271 66.5556 57.6887 139.635L713.92 134.631Z" fill="#D31616"/>
<path opacity="0.1" d="M728.007 195.917C728.026 176.1 723.788 156.464 715.522 138.077L21.1738 203.22C14.0136 214.795 8.53659 227.14 4.87552 239.956L219.892 268.61L-0.0352173 289.511C6.58329 372.237 85.9274 437.563 182.852 437.563C231.641 437.563 275.979 421.007 308.824 394.012C341.782 421.52 386.538 438.431 435.851 438.431C509.023 438.431 572.175 401.195 601.583 347.351C660.589 330.617 706.423 288.586 722.112 236.01L450.229 198.286H728.007C727.993 197.494 728.007 196.708 728.007 195.917Z" fill="#EA0B0B"/>
<path d="M203.147 506C291.986 506 364.004 495.448 364.004 482.432C364.004 469.416 291.986 458.864 203.147 458.864C114.308 458.864 42.2904 469.416 42.2904 482.432C42.2904 495.448 114.308 506 203.147 506Z" fill="#71A8DB"/>
<path d="M369.51 330.611C362.275 332.233 354.848 329.078 354.848 329.078C354.848 329.078 348.513 322.523 343.17 321.636C337.827 320.749 335.758 328.508 332.583 330.503C330.387 331.903 314.542 330.902 304.947 330.155L303.296 330.022C303.133 329.914 302.97 329.8 302.793 329.699C302.793 329.699 293.581 327.165 291.661 324.923C289.74 322.681 276.907 318.533 272.925 318.773C268.942 319.014 257.172 319.584 257.172 319.584C257.172 319.584 252.559 314.891 250.476 315.378C248.392 315.866 241.15 315.34 241.15 315.34C241.15 315.34 239.159 310.767 237.168 304.212C236.24 301.153 233.15 299.005 230.124 297.593C232.845 289.359 227.998 265.873 212.947 261.281C209.666 260.281 207.987 256.955 205.195 255.131C202.693 253.504 198.598 249.665 200.603 242.73C203.438 233.02 210.467 217.73 210.467 217.73L215.704 208.382C215.215 209.044 214.66 209.665 214.046 210.237C214.754 209.427 215.463 208.629 216.072 207.957C221.298 210.317 226.998 211.72 232.838 212.087C238.748 214.221 244.651 216.103 246.947 216.033C252.198 215.868 265.591 221.86 265.591 221.86C265.591 221.86 297.811 230.094 304.508 230.759C311.204 231.424 314.464 223.64 314.464 223.64C314.464 223.64 317.943 208.293 311.764 204.227C305.585 200.16 301.992 218.794 301.992 218.794L259.837 205.215L257.236 203.992C259.255 202.083 260.858 199.853 261.962 197.418C262.614 195.967 263.21 194.308 264.761 193.586C265.179 193.4 265.63 193.283 266.094 193.238C266.478 193.215 266.864 193.215 267.249 193.238C274.562 193.637 280.847 198.78 288.174 198.805C288.443 198.805 288.713 198.805 288.982 198.805C290.379 198.801 291.743 198.426 292.901 197.728C293.554 197.253 294.092 196.662 294.479 195.993C294.867 195.324 295.097 194.591 295.154 193.839C295.047 194.043 294.929 194.242 294.8 194.435C294.991 193.503 294.991 192.548 294.8 191.616C294.346 189.393 293.05 187.398 291.887 185.39C291.559 184.922 291.373 184.384 291.349 183.832C291.382 183.543 291.48 183.264 291.637 183.01C291.794 182.757 292.007 182.534 292.263 182.356C292.274 182.416 292.288 182.475 292.305 182.533C292.858 182.069 293.472 181.667 294.134 181.336C295.925 180.286 297.455 178.919 298.63 177.318C299.805 175.718 300.6 173.918 300.965 172.032C300.788 172.501 300.575 172.963 300.348 173.419C301.438 170.204 301.174 166.743 299.604 163.69C299.198 162.822 298.549 162.06 297.719 161.48C295.076 159.82 291.526 161.588 288.302 161.778C285.467 161.942 282.718 160.809 280.16 159.662C275.795 157.705 271.451 155.59 267.816 152.695C263.684 149.382 260.616 145.158 256.889 141.49C253.161 137.823 248.378 134.555 242.83 134.188C232.746 133.491 223.236 142.422 213.649 139.508C208.972 138.096 205.896 134.232 202.644 130.913C199.391 127.594 194.92 124.408 190.045 125.124C186.657 125.631 183.724 127.981 180.294 127.892C178.501 127.841 176.836 127.125 175.135 126.625C171.018 125.39 165.378 125.992 163.911 129.653C163.623 130.398 163.521 131.191 163.613 131.976C163.704 132.761 163.988 133.518 164.442 134.194C164.225 134.466 164.031 134.752 163.861 135.049C163.509 135.629 163.387 136.299 163.514 136.949C160.6 139.287 158.44 142.281 157.261 145.619C156.081 148.957 155.925 152.516 156.808 155.926C157.691 159.336 159.58 162.473 162.281 165.008C164.981 167.543 168.392 169.385 172.159 170.341C172.294 170.803 172.428 171.266 172.556 171.734C173.931 176.909 174.646 182.736 172.613 186.663C172.485 186.904 172.35 187.138 172.202 187.366L172.024 187.436L172.102 187.505L172.024 187.436L171.769 187.201L170.225 185.757C170.14 184.25 169.19 180.209 162.586 172.71C153.891 162.835 152.261 146.494 152.261 146.494C152.261 146.494 150.093 138.083 152.261 135.657C154.429 133.231 158.058 106.522 158.058 106.522L164.052 91.4852C164.052 91.4852 193.198 64.9467 181.059 61.7164C172.818 59.5186 162.99 70.8434 157.533 78.3299C154.853 82.006 153.12 86.1684 152.459 90.5162L135.984 130.805C135.984 130.805 134.354 135.663 135.984 144.075C137.614 152.486 141.235 167.377 141.235 167.377L150.447 188.247C150.447 188.247 153.841 197.259 153.544 201.174C153.14 201.408 151.722 203.916 150.497 206.196L149.597 207.463L149.533 207.976C148.931 209.123 148.512 209.946 148.512 209.946C148.512 209.946 143.382 223.481 147.669 231.785C151.956 240.089 152.126 243.94 152.126 243.94L155.322 256.24L156.654 267.007L168.148 292.412L178.735 305.922C178.735 305.922 177.743 315.872 175.568 317.247C173.392 318.621 174.391 325.74 174.391 325.74L173.031 344.425C173.031 344.425 168.779 350.011 168.51 359.069C168.24 368.126 166.696 370.723 166.696 370.723C166.696 370.723 165.987 378.323 167.964 381.807C169.941 385.291 164.797 388.926 164.797 388.926L169.211 402.474L167.489 419.626C167.489 419.626 168.29 419.822 169.615 420.12L169.346 421.349L162.146 453.841C162.146 453.841 158.256 462.747 158.079 464.843L145.494 485.155C145.494 485.155 134.992 494.46 139.974 495.347C144.955 496.233 159.439 488.227 159.439 488.227C159.439 488.227 171.387 476.738 176.092 475.693C180.797 474.648 186.013 471.639 184.51 467.275C183.008 462.911 179.55 456.273 182.88 449.23C185.006 444.797 189.527 432.762 192.631 424.364C192.801 423.901 192.964 423.458 193.127 423.027C193.948 422.961 194.76 422.823 195.551 422.616C203.154 420.513 207.137 421.982 207.137 421.982L220.714 372.876L223.697 348.238L242.709 362.413C246.471 365.217 251.141 366.867 256.031 367.119C263.521 367.512 275.206 368.481 283.667 370.818L287.211 357.631C287.211 357.631 297.344 357.96 299.519 354.882C300.405 353.615 301.277 352.539 301.992 351.715L303.636 351.487L348.485 345.286C356.811 345.286 368.22 340.264 368.22 340.264L375.193 339.054C375.193 339.054 385.595 337.192 386.531 335.653C387.466 334.114 376.759 329.002 369.51 330.611Z" fill="url(#paint0_linear)"/>
<path d="M166.001 132.826C167.418 129.254 172.96 128.652 176.992 129.862C178.65 130.356 180.287 131.059 182.037 131.128C185.396 131.217 188.266 128.912 191.582 128.424C196.351 127.715 200.724 130.831 203.905 134.08C207.087 137.329 210.106 141.11 214.683 142.498C224.058 145.322 233.37 136.607 243.234 137.285C248.647 137.659 253.324 140.844 256.974 144.436C260.623 148.027 263.628 152.157 267.667 155.399C271.21 158.25 275.462 160.321 279.749 162.24C282.25 163.361 284.922 164.469 287.714 164.305C290.874 164.121 294.346 162.405 296.926 164.013C297.737 164.582 298.372 165.328 298.768 166.18C301.943 172.083 299.385 179.943 293.17 183.414C292.086 184.016 290.768 184.681 290.704 185.84C290.724 186.381 290.905 186.908 291.228 187.366C292.362 189.33 293.638 191.287 294.063 193.459C294.488 195.632 293.914 198.134 291.937 199.451C290.646 200.218 289.113 200.594 287.565 200.521C280.394 200.49 274.243 195.454 267.086 195.068C266.17 194.974 265.243 195.101 264.4 195.435C262.884 196.138 262.274 197.766 261.658 199.185C258.341 206.589 250.107 211.739 241.32 213.151C232.533 214.563 223.357 212.575 215.491 208.8C214.916 208.554 214.388 208.229 213.925 207.837C213.268 207.124 212.805 206.285 212.572 205.386C210.162 198.577 206.903 191.451 200.227 187.518C195.898 184.985 190.023 183.56 188.06 179.284C186.827 176.58 187.6 173.508 187.288 170.594C186.981 168.096 185.892 165.726 184.146 163.757C182.4 161.787 180.068 160.298 177.417 159.459C176.255 159.111 174.979 158.864 174.129 158.072C173.439 157.295 172.998 156.365 172.854 155.38C171.798 151.093 171.096 146.564 169.622 142.377C168.496 139.096 164.492 136.582 166.001 132.826Z" fill="#663D5B"/>
<g opacity="0.1">
<path opacity="0.1" d="M292.766 197.481C291.471 198.238 289.939 198.604 288.394 198.526C281.23 198.526 275.079 193.459 267.922 193.079C267.007 192.983 266.079 193.108 265.236 193.44C263.713 194.143 263.11 195.771 262.494 197.19C259.177 204.6 250.936 209.75 242.149 211.162C233.362 212.575 224.186 210.586 216.327 206.811C215.753 206.564 215.224 206.24 214.761 205.848C214.106 205.135 213.643 204.296 213.408 203.397C210.998 196.582 207.739 189.463 201.064 185.523C196.727 182.958 190.852 181.571 188.897 177.289C187.657 174.578 188.429 171.506 188.124 168.599C187.818 166.1 186.729 163.729 184.981 161.759C183.234 159.789 180.899 158.3 178.246 157.464C177.084 157.116 175.808 156.863 174.958 156.077C174.267 155.299 173.828 154.365 173.69 153.379C172.627 149.097 171.932 144.562 170.458 140.382C169.466 137.583 166.341 135.315 166.497 132.326C166.405 132.483 166.325 132.646 166.256 132.813C164.74 136.569 168.751 139.084 169.891 142.314C171.365 146.494 172.06 151.029 173.123 155.311C173.261 156.297 173.7 157.23 174.391 158.009C175.242 158.794 176.517 159.048 177.679 159.396C180.333 160.232 182.668 161.722 184.416 163.693C186.164 165.664 187.253 168.037 187.557 170.537C187.862 173.444 187.09 176.516 188.33 179.227C190.286 183.528 196.16 184.928 200.497 187.461C207.158 191.407 210.417 198.52 212.841 205.335C213.076 206.234 213.539 207.073 214.194 207.786C214.657 208.178 215.186 208.502 215.76 208.749C223.619 212.549 232.767 214.506 241.582 213.1C250.398 211.694 258.589 206.539 261.927 199.128C262.565 197.709 263.153 196.081 264.669 195.378C265.512 195.046 266.44 194.921 267.355 195.017C274.512 195.404 280.663 200.439 287.827 200.464C289.374 200.537 290.907 200.164 292.199 199.4C292.84 198.936 293.366 198.359 293.747 197.706C294.127 197.052 294.353 196.335 294.41 195.6C294.052 196.343 293.486 196.991 292.766 197.481V197.481Z" fill="black"/>
<path opacity="0.1" d="M293.999 181.425C292.915 182.058 291.59 182.692 291.526 183.851C291.52 184.084 291.561 184.315 291.646 184.535C292.185 184.08 292.785 183.686 293.432 183.363C295.185 182.337 296.683 180.999 297.832 179.434C298.982 177.868 299.759 176.107 300.114 174.262C299.067 177.211 296.905 179.743 293.999 181.425V181.425Z" fill="black"/>
</g>
<path d="M184.546 445.544C181.265 452.435 184.638 458.921 186.14 463.203C187.642 467.484 182.512 470.404 177.906 471.437C173.3 472.469 161.608 483.705 161.608 483.705C161.608 483.705 147.435 491.54 142.56 490.672C137.685 489.805 147.96 480.697 147.96 480.697L160.275 460.821C160.453 458.769 164.258 450.054 164.258 450.054L171.302 418.258L172.237 414.033L197.209 412.684C197.209 412.684 195.898 416.307 194.091 421.203C191.051 429.437 186.601 441.243 184.546 445.544Z" fill="#CCA581"/>
<path d="M383.845 334.405C382.959 335.912 372.776 337.73 372.776 337.73L365.952 338.915C365.952 338.915 354.791 343.83 346.642 343.83L302.75 349.904L296.862 350.721V328.464C296.862 328.464 299.824 328.743 304.019 329.097C313.394 329.832 328.906 330.807 331.053 329.439C334.156 327.463 336.19 319.863 341.413 320.737C346.635 321.611 352.843 328.021 352.843 328.021C352.843 328.021 360.106 331.105 367.192 329.522C374.279 327.938 384.731 332.898 383.845 334.405Z" fill="#CCA581"/>
<path opacity="0.1" d="M304.302 348.181C304.302 348.181 303.672 348.814 302.75 349.897L296.862 350.715V328.464C296.862 328.464 299.824 328.743 304.019 329.097C311.063 334.069 304.302 348.181 304.302 348.181Z" fill="black"/>
<path d="M219.537 343.038L243.113 360.621C246.795 363.364 251.366 364.978 256.152 365.225C263.479 365.612 274.916 366.555 283.221 368.848L286.679 355.94C286.679 355.94 296.6 356.257 298.726 353.248C299.974 351.472 301.364 349.779 302.885 348.181C302.885 348.181 310.063 333.221 301.914 328.629C301.914 328.629 292.879 326.171 291.016 323.954C289.152 321.737 276.581 317.703 272.684 317.937C268.786 318.172 257.271 318.729 257.271 318.729C257.271 318.729 252.75 314.137 250.717 314.612C248.683 315.087 241.59 314.612 241.59 314.612C241.59 314.612 239.641 310.134 237.692 303.718C235.743 297.302 224.143 295.009 224.143 295.009L219.537 343.038Z" fill="#565987"/>
<path opacity="0.1" d="M219.537 343.038L243.113 360.621C246.795 363.364 251.366 364.978 256.152 365.225C263.479 365.612 274.916 366.555 283.221 368.848L286.679 355.94C286.679 355.94 296.6 356.257 298.726 353.248C299.974 351.472 301.364 349.779 302.885 348.181C302.885 348.181 310.063 333.221 301.914 328.629C301.914 328.629 292.879 326.171 291.016 323.954C289.152 321.737 276.581 317.703 272.684 317.937C268.786 318.172 257.271 318.729 257.271 318.729C257.271 318.729 252.75 314.137 250.717 314.612C248.683 315.087 241.59 314.612 241.59 314.612C241.59 314.612 239.641 310.134 237.692 303.718C235.743 297.302 224.143 295.009 224.143 295.009L219.537 343.038Z" fill="black"/>
<path d="M208.993 185.403L206.385 185.84H206.222L205.84 185.903L201.375 186.644L200.001 188.101L199.944 188.152L195.529 192.826L191.809 196.088L191.774 196.126L188.627 198.862L183.306 203.593L182.413 205.563L180.471 209.927L179.968 211.035L174.653 216.103L171.259 222.595L163.323 226.712L154.784 222.753L150.886 217.686L151.772 210.427L151.949 208.977L154.55 205.246L156.91 201.851L161.516 195.993L170.373 190.609L171.961 190.235L173.739 189.817C173.875 189.644 174.001 189.464 174.115 189.279C174.265 189.056 174.4 188.826 174.519 188.589C176.51 184.75 175.808 179.044 174.462 173.983C173.43 170.197 172.063 166.491 170.373 162.899L193.758 159.89C193.758 159.89 193.531 163.944 193.531 170.265C193.531 171.848 193.531 173.565 193.581 175.402C193.694 181.102 199.618 183.572 204.089 184.624C205.241 184.898 206.41 185.109 207.59 185.257C208.455 185.377 208.993 185.403 208.993 185.403Z" fill="#CCA581"/>
<path d="M172.145 188.392C172.145 188.392 173.208 184.592 164.704 174.933C156.201 165.274 154.607 149.281 154.607 149.281C154.607 149.281 152.481 141.047 154.607 138.672C156.732 136.297 160.276 110.17 160.276 110.17L166.122 95.4438C166.122 95.4438 194.644 69.4753 182.774 66.3084C174.71 64.1549 165.059 75.2454 159.751 82.5673C157.13 86.1652 155.435 90.2389 154.791 94.4938L138.663 133.922C138.663 133.922 137.068 138.672 138.663 146.906C140.257 155.14 143.8 169.708 143.8 169.708L152.835 190.153C152.835 190.153 157.59 202.884 155.124 204.436L160.63 197.158L172.145 188.392Z" fill="#CCA581"/>
<path d="M313.337 224.83C313.337 224.83 310.148 232.431 303.594 231.798C297.039 231.164 265.505 223.089 265.505 223.089C265.505 223.089 252.396 217.23 247.259 217.388C242.121 217.547 218.559 207.729 218.559 207.729C218.559 207.729 216.901 209.68 215.052 211.732C213.039 213.981 210.8 216.356 210.233 216.438C209.17 216.597 192.695 218.655 192.695 218.655L181.534 214.063L180.471 209.927L179.968 208.027L182.441 205.563L185.694 202.327L191.795 196.107L191.83 196.069L199.972 188.158L200.029 188.107L205.244 186.207L206.251 185.84H206.414C207.037 185.745 209.432 185.548 212.642 187.17C214.878 188.301 217.36 188.988 219.92 189.184C225.015 189.509 229.839 191.356 233.618 194.428L259.837 206.76L301.114 220.061C301.114 220.061 304.657 201.851 310.68 205.81C316.703 209.769 313.337 224.83 313.337 224.83Z" fill="#CCA581"/>
<path opacity="0.1" d="M215.052 211.732C213.039 213.981 210.8 216.356 210.233 216.438C209.17 216.597 192.695 218.655 192.695 218.655L181.534 214.063L180.471 209.927L179.968 211.035L174.653 216.103L171.259 222.595L163.323 226.712L154.784 222.753L150.886 217.686L151.772 210.427C152.218 209.566 153.437 207.223 154.55 205.246C155.075 204.158 155.736 203.125 156.52 202.168C157.228 201.75 157.972 197.259 157.972 197.259C161.19 188.969 171.968 187.695 171.968 187.695L173.69 189.14L174.441 189.836C174.136 189.792 174.497 189.203 174.108 189.298C173.484 189.456 173.208 190.299 172.407 190.761C168.049 193.295 161.239 199.204 158.546 202.01C157.895 202.688 157.221 203.353 156.534 203.999C152.644 207.679 153.359 212.556 153.359 212.556C152.389 216.356 160.977 219.206 160.977 219.206C163.372 215.646 179.578 205.829 179.578 205.829L190.491 194.903C193.836 189.697 200.412 186.258 204.082 184.649C205.705 183.94 206.768 183.585 206.768 183.585L210.85 185.143C209.772 184.885 208.632 184.929 207.583 185.27C206.981 185.436 206.395 185.648 205.833 185.903C205.62 185.998 205.407 186.099 205.209 186.207C204.093 186.786 203.044 187.463 202.077 188.228L192.907 197.177C185.899 204.011 191.178 215.064 201.545 215.222H201.638C207.973 216.527 212.515 213.905 215.052 211.732Z" fill="black"/>
<path opacity="0.1" d="M197.209 412.703C197.209 412.703 195.898 416.326 194.091 421.222C187.161 421.685 175.716 419.29 171.302 418.277L172.237 414.052L197.209 412.703Z" fill="black"/>
<path d="M174.448 189.836L172.18 187.759C172.18 187.759 163.996 188.76 158.915 196.575C158.915 196.575 156.541 202.434 155.811 202.852C155.081 203.27 150.886 211.46 150.886 211.46C150.886 211.46 145.869 224.704 150.057 232.836C154.245 240.969 154.429 244.712 154.429 244.712L157.561 256.746L158.858 267.298L170.111 292.159L180.471 305.352C180.471 305.352 179.5 315.087 177.374 316.436C175.249 317.785 176.219 324.746 176.219 324.746L174.894 343.038C174.894 343.038 170.728 348.498 170.465 357.365C170.203 366.232 168.694 368.766 168.694 368.766C168.694 368.766 167.985 376.208 169.934 379.616C171.883 383.023 166.83 386.583 166.83 386.583L171.174 399.801L169.488 416.586C169.488 416.586 189.506 421.577 196.947 419.518C204.387 417.46 208.284 418.885 208.284 418.885L221.571 370.805L226.177 333.043C226.177 333.043 226.446 306.283 230.429 298.125C233.844 291.158 229.366 266.336 213.982 261.649C210.772 260.673 209.142 257.418 206.4 255.632C203.948 254.042 199.944 250.286 201.907 243.496C204.656 233.995 211.565 219.035 211.565 219.035L216.682 209.927C216.682 209.927 211.119 217.971 200.936 215.912H200.844C190.477 215.748 185.198 204.695 192.206 197.868L201.375 188.912C201.375 188.912 206.428 184.75 210.148 185.802L206.074 184.244C206.074 184.244 194.601 188.044 189.775 195.562L178.863 206.488C178.863 206.488 162.671 216.261 160.275 219.846C160.275 219.846 151.687 216.996 152.658 213.195C152.658 213.195 151.949 208.312 155.832 204.632C156.541 203.999 157.193 203.327 157.845 202.65C161.338 199.001 170.997 189.323 174.448 189.836Z" fill="#565987"/>
<path opacity="0.1" d="M175.78 255.074C175.78 255.074 173.208 271.783 175.157 275.184L175.78 255.074Z" fill="black"/>
<path opacity="0.1" d="M177.46 261.566L180.209 271.149C180.209 271.149 181.18 265.291 177.46 261.566Z" fill="black"/>
<path opacity="0.1" d="M161.161 259.331C161.161 259.331 166.653 283.716 172.676 291.082Z" fill="black"/>
<path opacity="0.1" d="M199.873 288.726C199.873 288.726 190.484 296.643 186.849 296.067C186.849 296.067 201.29 296.624 205.804 289.815C205.804 289.834 202.885 287.934 199.873 288.726Z" fill="black"/>
<path opacity="0.1" d="M212.89 288.092C212.89 288.092 200.844 295.927 198.456 296.643C198.456 296.643 211.473 293.318 212.89 288.092Z" fill="black"/>
<path opacity="0.1" d="M172.145 229.898C172.145 229.898 166.122 236.789 163.11 235.997C163.11 235.997 170.465 236.231 172.145 229.898Z" fill="black"/>
<path opacity="0.1" d="M178.969 238.765C178.969 238.765 192.078 222.854 198.279 223.488C198.279 223.488 183.398 235.047 178.969 238.765Z" fill="black"/>
<path opacity="0.1" d="M197.124 232.976C197.124 232.976 188.797 236.706 189.683 237.796C190.569 238.885 197.124 232.976 197.124 232.976Z" fill="black"/>
<path opacity="0.1" d="M203.147 355.148C203.147 355.148 175.334 369.64 172.768 370.349C172.768 370.349 177.552 373.598 182.066 372.015C186.579 370.432 203.147 355.148 203.147 355.148Z" fill="black"/>
<path opacity="0.1" d="M179.855 385.316C179.855 385.316 168.694 384.284 169.133 387.533C169.573 390.782 179.855 385.316 179.855 385.316Z" fill="black"/>
<path opacity="0.1" d="M193.758 159.89C193.758 159.89 193.531 163.944 193.531 170.265C190.907 172.187 187.811 173.525 184.496 174.171C181.181 174.816 177.742 174.749 174.462 173.976C173.43 170.191 172.063 166.484 170.373 162.892L193.758 159.89Z" fill="black"/>
<path d="M179.94 173.375C191.778 173.375 201.375 164.797 201.375 154.215C201.375 143.633 191.778 135.055 179.94 135.055C168.101 135.055 158.504 143.633 158.504 154.215C158.504 164.797 168.101 173.375 179.94 173.375Z" fill="#CCA581"/>
<path opacity="0.1" d="M185.559 165.907C186.161 173.742 188.004 182.704 195.614 186.644C201.113 189.488 208.044 188.741 214.131 187.119C220.218 185.498 226.177 183.078 232.512 182.806C237.38 182.597 242.192 183.667 247.046 183.94C251.9 184.212 257.215 183.534 260.68 180.481C265.64 176.136 264.733 168.238 260.035 163.671C255.337 159.105 247.988 157.445 241.03 157.616C232.526 157.825 223.031 160.15 216.306 155.539C211.792 152.435 210.084 147.052 206.286 143.258C199.944 136.924 171.897 127.778 165.959 138.102C163.174 142.935 175.83 146.387 178.763 149.883C183.398 155.399 185.006 158.674 185.559 165.907Z" fill="black"/>
<path d="M186.218 165.23C186.827 173.071 188.663 182.033 196.273 185.966C201.772 188.81 208.703 188.063 214.79 186.448C220.877 184.833 226.836 182.407 233.178 182.134C238.039 181.925 242.851 182.989 247.712 183.268C252.573 183.547 257.874 182.863 261.339 179.81C266.299 175.459 265.392 167.567 260.694 163C255.996 158.433 248.647 156.774 241.696 156.945C233.192 157.148 223.69 159.478 216.965 154.861C212.451 151.758 210.743 146.38 206.945 142.58C200.603 136.246 172.556 127.106 166.618 137.431C163.833 142.257 176.489 145.709 179.429 149.211C184.057 154.722 185.665 157.99 186.218 165.23Z" fill="#663D5B"/>
<path opacity="0.1" d="M160.438 219.2C160.767 216.7 161.689 214.292 163.142 212.136C164.595 209.98 166.546 208.125 168.864 206.697" fill="black"/>
<path opacity="0.1" d="M240.81 318.412C240.744 319.033 240.575 319.641 240.307 320.217C239.378 322.704 238.261 325.131 236.962 327.482C238.854 327.337 240.413 326.006 241.214 324.474C241.914 322.897 242.3 321.223 242.355 319.527C242.424 318.997 242.441 318.463 242.404 317.931C242.355 317.437 242.001 315.549 241.086 315.885C240.349 316.164 240.824 317.912 240.81 318.412Z" fill="black"/>
<path opacity="0.1" d="M262.614 177.827C259.142 180.88 253.842 181.564 248.98 181.286C244.119 181.007 239.287 179.943 234.447 180.158C228.069 180.431 222.159 182.85 216.065 184.472C209.971 186.093 203.048 186.84 197.542 183.997C189.938 180.057 188.096 171.095 187.494 163.26C186.941 156.027 185.325 152.752 180.698 147.235C177.899 143.897 166.278 140.604 167.61 136.119C167.225 136.524 166.892 136.966 166.618 137.437C163.833 142.263 176.489 145.715 179.43 149.218C184.057 154.728 185.665 158.009 186.218 165.236C186.827 173.077 188.663 182.039 196.273 185.973C201.772 188.817 208.703 188.069 214.79 186.454C220.877 184.839 226.836 182.413 233.178 182.141C238.039 181.932 242.851 182.996 247.712 183.274C252.573 183.553 257.874 182.869 261.339 179.816C262.323 178.943 263.106 177.906 263.642 176.763C263.33 177.141 262.987 177.497 262.614 177.827V177.827Z" fill="black"/>
<path d="M158.901 235.421L156.3 240.488L164.57 239.012L158.901 235.421Z" fill="#CCA581"/>
<path opacity="0.1" d="M158.901 235.421L156.761 240.488H156.3L158.901 235.421Z" fill="black"/>
<path opacity="0.1" d="M363.536 465.407C379.582 465.407 392.589 463.81 392.589 461.841C392.589 459.871 379.582 458.275 363.536 458.275C347.49 458.275 334.482 459.871 334.482 461.841C334.482 463.81 347.49 465.407 363.536 465.407Z" fill="#638598"/>
<path opacity="0.1" d="M474.825 475.49C490.87 475.49 503.878 473.894 503.878 471.924C503.878 469.955 490.87 468.358 474.825 468.358C458.779 468.358 445.771 469.955 445.771 471.924C445.771 473.894 458.779 475.49 474.825 475.49Z" fill="#638598"/>
<path opacity="0.1" d="M605.912 461.841C621.958 461.841 634.965 460.244 634.965 458.275C634.965 456.305 621.958 454.709 605.912 454.709C589.866 454.709 576.859 456.305 576.859 458.275C576.859 460.244 589.866 461.841 605.912 461.841Z" fill="#638598"/>
<path opacity="0.1" d="M430.281 503.175C441.685 503.175 450.93 502.041 450.93 500.642C450.93 499.242 441.685 498.108 430.281 498.108C418.877 498.108 409.632 499.242 409.632 500.642C409.632 502.041 418.877 503.175 430.281 503.175Z" fill="#638598"/>
<path opacity="0.1" d="M545.786 500.642C557.19 500.642 566.435 499.507 566.435 498.108C566.435 496.709 557.19 495.575 545.786 495.575C534.381 495.575 525.136 496.709 525.136 498.108C525.136 499.507 534.381 500.642 545.786 500.642Z" fill="#638598"/>
<path d="M475.358 472.179C475.358 472.179 434.612 352.788 481.735 304.967C516.982 269.194 556.998 273.476 574.919 277.897C579.556 279.001 583.869 280.992 587.56 283.734C591.25 286.476 594.229 289.902 596.291 293.776C602.555 305.86 601.428 325.445 557.203 348.354C483.153 386.673 478.547 439.244 478.547 439.244L475.358 472.179Z" fill="#749863"/>
<path d="M568.639 293.78C568.639 293.78 448.528 327.349 475.455 471.126" stroke="#164809" stroke-miterlimit="10"/>
<path d="M498.485 305.814C498.485 305.814 515.017 315.777 509.767 330.744" stroke="#565987" stroke-miterlimit="10"/>
<path d="M556.592 314.682C556.592 314.682 546.48 305.485 534.171 310.558" stroke="#052805" stroke-miterlimit="10"/>
<path d="M509.115 360.918C509.115 360.918 491.357 352.862 486.765 362.951" stroke="#565987" stroke-miterlimit="10"/>
<path d="M465.18 377.703C465.18 377.703 478.509 376.753 478.75 382.453" stroke="#565987" stroke-miterlimit="10"/>
<path d="M473.84 472.076C473.84 472.076 521.558 385.303 534.667 387.203C540.896 388.103 543.766 393.582 545.063 399.079C546.664 406.196 545.743 413.582 542.427 420.209C535.659 434.086 517.469 460.454 473.84 472.076Z" fill="#6A9863"/>
<path d="M534.278 403.671C534.278 403.671 484.192 468.593 474.513 471.443" stroke="#565987" stroke-miterlimit="10"/>
<path d="M538.884 413.805H527.191" stroke="#565987" stroke-miterlimit="10"/>
<path d="M524.881 437.557L506.556 438.26" stroke="#565987" stroke-miterlimit="10"/>
<path d="M513.728 418.556L515.719 427.087" stroke="#565987" stroke-miterlimit="10"/>
<path d="M494.241 444.524L494.593 452.277" stroke="#565987" stroke-miterlimit="10"/>
<path d="M475.257 472.076C475.257 472.076 427.538 385.303 414.429 387.203C408.2 388.103 405.33 393.582 404.033 399.079C402.41 406.19 403.307 413.575 406.599 420.209C413.366 434.086 431.556 460.454 475.257 472.076Z" fill="#6E9863"/>
<path d="M414.748 403.671C414.748 403.671 464.833 468.593 474.513 471.443" stroke="#565987" stroke-miterlimit="10"/>
<path d="M410.135 413.805H421.827" stroke="#565987" stroke-miterlimit="10"/>
<path d="M424.144 437.557L442.469 438.26" stroke="#565987" stroke-miterlimit="10"/>
<path d="M435.291 418.556L433.307 427.087" stroke="#565987" stroke-miterlimit="10"/>
<path d="M454.777 444.524L454.423 452.277" stroke="#565987" stroke-miterlimit="10"/>
<path d="M557.159 492.338C558.462 491.394 559.411 490.116 559.88 488.677C560.227 487.22 559.533 485.479 557.981 484.946C556.238 484.351 554.374 485.428 552.964 486.517C551.554 487.607 549.931 488.854 548.082 488.62C549.031 487.85 549.742 486.872 550.143 485.783C550.544 484.694 550.622 483.531 550.37 482.407C550.294 481.94 550.073 481.501 549.733 481.14C548.769 480.215 547.012 480.614 545.849 481.343C542.165 483.661 541.137 488.132 541.123 492.161C540.747 490.704 541.059 489.19 541.052 487.727C541.045 486.264 540.584 484.56 539.181 483.787C538.315 483.359 537.337 483.14 536.347 483.154C534.689 483.103 532.846 483.249 531.712 484.332C530.295 485.675 530.671 487.936 531.897 489.399C533.123 490.862 534.979 491.806 536.687 492.832C538.064 493.559 539.237 494.558 540.117 495.752C540.221 495.917 540.307 496.091 540.372 496.271H550.753C553.077 495.224 555.232 493.901 557.159 492.338V492.338Z" fill="#6A9863"/>
<path d="M375.341 457.395C376.642 456.447 377.589 455.168 378.055 453.727C378.41 452.27 377.715 450.56 376.156 449.997C374.413 449.401 372.557 450.478 371.139 451.574C369.722 452.67 368.106 453.905 366.264 453.677C367.213 452.902 367.922 451.921 368.32 450.828C368.719 449.736 368.794 448.57 368.539 447.444C368.459 446.978 368.239 446.54 367.901 446.177C366.93 445.253 365.18 445.645 364.018 446.374C360.333 448.692 359.305 453.164 359.284 457.192C358.916 455.741 359.227 454.228 359.22 452.758C359.213 451.289 358.753 449.591 357.342 448.812C356.473 448.394 355.495 448.189 354.508 448.217C352.857 448.16 351.007 448.306 349.881 449.389C348.464 450.738 348.839 452.993 350.058 454.456C351.277 455.919 353.14 456.862 354.855 457.889C356.227 458.62 357.397 459.618 358.278 460.808C358.384 460.975 358.47 461.151 358.533 461.334H368.921C371.249 460.284 373.408 458.959 375.341 457.395Z" fill="#639865"/>
<path d="M435.921 492.338C437.224 491.394 438.173 490.116 438.642 488.677C438.99 487.22 438.295 485.479 436.743 484.946C435 484.351 433.136 485.428 431.726 486.517C430.316 487.607 428.693 488.854 426.844 488.62C427.795 487.85 428.507 486.873 428.909 485.784C429.311 484.695 429.391 483.531 429.14 482.407C429.063 481.94 428.843 481.501 428.502 481.14C427.538 480.215 425.781 480.614 424.619 481.343C420.934 483.661 419.907 488.132 419.892 492.161C419.517 490.704 419.829 489.19 419.822 487.727C419.814 486.264 419.354 484.56 417.951 483.787C417.084 483.359 416.107 483.14 415.116 483.154C413.458 483.103 411.616 483.249 410.482 484.332C409.065 485.675 409.44 487.936 410.666 489.399C411.892 490.862 413.749 491.806 415.456 492.832C416.833 493.559 418.007 494.558 418.886 495.752C418.991 495.917 419.076 496.091 419.141 496.271H429.523C431.844 495.224 433.996 493.901 435.921 492.338V492.338Z" fill="#63986F"/>
<path d="M607.769 421.697C607.769 421.697 611.666 426.245 605.976 433.098C600.286 439.951 595.594 445.766 597.472 450.047C597.472 450.047 606.061 437.291 613.062 437.114C620.063 436.936 615.485 429.367 607.769 421.697Z" fill="#649863"/>
<path opacity="0.1" d="M607.769 421.697C608.109 422.135 608.377 422.615 608.562 423.122C615.386 430.28 619.014 436.962 612.46 437.133C606.358 437.285 599.038 447.045 597.281 449.509C597.339 449.698 597.407 449.884 597.486 450.066C597.486 450.066 606.075 437.31 613.076 437.133C620.077 436.955 615.485 429.367 607.769 421.697Z" fill="black"/>
<path d="M615.032 427.493C615.032 429.095 614.834 430.394 614.586 430.394C614.338 430.394 614.146 429.076 614.146 427.493C614.146 425.909 614.394 426.65 614.642 426.65C614.89 426.65 615.032 425.909 615.032 427.493Z" fill="#FFD037"/>
<path d="M617.519 429.406C615.946 430.172 614.571 430.634 614.458 430.444C614.345 430.254 615.514 429.469 617.087 428.702C618.66 427.936 618.043 428.493 618.157 428.702C618.27 428.911 619.106 428.639 617.519 429.406Z" fill="#FFD037"/>
<path d="M586.743 423C586.743 423 582.846 427.548 588.536 434.401C594.226 441.254 598.917 447.068 597.039 451.35C597.039 451.35 588.458 438.594 581.45 438.416C574.442 438.239 579.076 430.67 586.743 423Z" fill="#639865"/>
<path opacity="0.1" d="M587.219 421.697C586.877 422.136 586.607 422.616 586.418 423.122C579.601 430.28 575.973 436.962 582.52 437.133C588.629 437.285 595.984 447.045 597.706 449.509C597.649 449.699 597.578 449.885 597.494 450.066C597.494 450.066 588.912 437.31 581.904 437.133C574.896 436.955 579.551 429.367 587.219 421.697Z" fill="#548C53"/>
<path d="M579.998 427.493C579.998 429.095 580.203 430.394 580.451 430.394C580.699 430.394 580.898 429.095 580.898 427.493C580.898 425.89 580.65 426.65 580.402 426.65C580.154 426.65 579.998 425.909 579.998 427.493Z" fill="#FFD037"/>
<path d="M577.518 429.406C579.091 430.172 580.458 430.634 580.579 430.444C580.699 430.254 579.523 429.469 577.95 428.702C576.377 427.936 576.993 428.493 576.873 428.702C576.752 428.911 575.944 428.639 577.518 429.406Z" fill="#FFD037"/>
<path d="M581.238 449.471C581.238 449.471 592.122 449.173 595.41 447.083C598.698 444.993 612.155 442.504 612.97 445.854C613.785 449.205 629.325 462.506 617.037 462.595C604.75 462.683 588.487 460.884 585.213 459.098C581.939 457.312 581.238 449.471 581.238 449.471Z" fill="#8B8484"/>
<path opacity="0.2" d="M617.25 461.429C604.962 461.518 588.692 459.719 585.419 457.933C582.931 456.577 581.932 451.707 581.606 449.458H581.238C581.238 449.458 581.946 457.306 585.206 459.086C588.466 460.865 604.743 462.671 617.03 462.582C620.573 462.582 621.799 461.429 621.735 459.757C621.232 460.777 619.886 461.41 617.25 461.429Z" fill="black"/>
</g>
<defs>
<linearGradient id="paint0_linear" x1="260.928" y1="495.397" x2="260.928" y2="61.4187" gradientUnits="userSpaceOnUse">
<stop stop-color="#808080" stop-opacity="0.25"/>
<stop offset="0.54" stop-color="#808080" stop-opacity="0.12"/>
<stop offset="1" stop-color="#808080" stop-opacity="0.1"/>
</linearGradient>
<clipPath id="clip0">
<rect width="728" height="506" fill="white"/>
</clipPath>
</defs>
</svg>
